<svg width="473.81" height="62.391" xmlns="http://www.w3.org/2000/svg"><path fill="#f05316" d="M348.737 4.939h3.813s2.188.625 2.188 3.563v12.625H336.55V6.564s.375-1.625 1.875-1.625h4v-4l-22-.063v4h3.563s2.25.063 2.25 3.813.063 33.375.063 33.375.125 2.25-2.5 2.375-8.375.0-8.375.0v4.125h27v-4.125h-4.563s-1.375-.563-1.375-3.25V26.376h18.188v16.125s-.063 2-1.875 2h-4.125v4.125H370.8v-4.125h-4.063s-1.938-.438-2-3 0-34.625.0-34.625.188-1.938 2.188-1.938h4.063V.876h-22.25v4.063zm29.875-.125h5.313s1.875-.125 1.938 3.313.0 34.188.0 34.188-.125 2.188-2.875 2.188h-9.25l-.063 4.125H421.8V30.501h-2.625s-1.5 13.625-12.375 13.938h-8.875s-1.688-.375-1.75-2.563.0-15.563.0-15.563 10.688-1.625 10.625 9.063h2.813v-22h-2.688s.375 8.25-10.813 7.938V6.439s.125-1.438 2.313-1.438h9.313s10.813-.688 11.313 12.375h2.875V.876h-43.313v3.938zM429.901.87v18.201h2.788s2.314-14.44 9.415-15.097c0 0 4.523-.868 4.55 1.946s0 36.582.0 36.582-.417 1.938-2.229 2-19.438.0-19.438.0v4.125h19.125l12.719-12.719V5.965s.317-2.003 1.52-2.003 10.422-1.489 12.311 15.116h3.148V.927L429.901.87z"/><g fill="#000"><path d="M44.339 38.217c0-6.79.204-31.234.204-31.234s-.34-2.105 2.376-2.105 3.734.068 3.734.068V.939H28.382V4.81h3.87s2.241-.543 2.173 3.938-.068 34.155-.068 34.155.068 1.561-2.784 1.561H18.129s-2.105.271-2.105-4.074V6.848S15.142 4.402 22 4.81V.94L0 .871v3.938h4.006s1.969-.203 1.969 2.513.068 35.376.068 35.376-.068 1.561-1.494 1.765-4.481.0-4.481.0L0 48.537h37.413s9.913-.478 11 13.784l2.852.07.068-17.994-5.16-.068c-.001.0-1.834.678-1.834-6.112zM58.444 4.875h5.111s2.084-.538 2.152 4.842.0 32.281.0 32.281-.471 2.354-2.757 2.488c-2.287.135-8.743.0-8.743.0v3.969h47.48v-18.09h-2.892S97.45 44.219 87.16 44.421h-9.012s-2.421.27-2.354-3.632.067-14.527.067-14.527 10.29-1.883 10.626 9.348h2.824V13.417h-2.824s-1.077 7.734-7.264 7.734H75.93V6.758s-.403-1.951 3.497-1.883 17.62-2.958 19.638 12.778h2.623V.907L58.444.84v4.035zm136.458 18.9s11.703-2.691 6.793-15.94c0 0-3.699-7.937-19.167-6.995.0.0-6.053.471-9.954 2.488.0.0-.739-.538-.941-2.421H167.8v16.544h2.69s-.202-10.223 8.81-11.836c0 0 9.55-2.555 13.921 3.968.0.0 3.565 7.667-4.169 10.962.0.0-1.009.538-4.708.605s-5.044.0-5.044.0v5.111s8.877-.27 10.828 1.412 3.632 2.759 3.632 6.659-1.278 9.415-7.532 9.886-30.264.27-30.264.27-2.286.74-2.152-5.717.0-31.744.0-31.744.336-2.084 2.219-2.084h3.968V.908h-22.193v4.035h3.833s2.287.202 2.219 2.959.0 13.316.0 13.316h-18.293V6.759s.135-1.883 2.69-1.883h3.295V.908L109.556.841v4.035h3.833s2.018.335 2.085 3.093.0 34.568.0 34.568-.27 1.951-2.152 2.018c-1.883.068-8.675.0-8.675.0v3.834h26.834v-3.834h-4.237s-1.413.135-1.547-3.094c-.134-3.228.0-15.199.0-15.199h18.024v16.005s.269 2.152-1.816 2.22-4.035.0-4.035.0v4.036h52.593s6.86.201 11.971-6.859c.001.001 6.322-11.164-7.532-17.889z"/><path d="M170.633 31.751H167.8v10.125h8.833s-5.916-1.042-6-10.125zm130.979-27.75s-4.438-3.125-9-3.125S263.05.814 263.05.814v4.063h4.688s2.375.125 2.438 3.188.0 34.25.0 34.25-.125 2.125-2.125 2.188-14.125.0-14.125.0-2.438 3.188-5 4.063h39.438v-4.063h-6.125s-1.938-.563-1.938-3.188v-15l11.25-.125s10.563-.063 14.375-8.313c-.001-.001 3.186-8.063-4.314-13.876zm-13 18.125c-4.313.125-8.25.0-8.25.0V6.814s.063-1.875 2.75-1.875 11.813-.688 12.875 6.125-3.062 10.937-7.375 11.062z"/><path d="M238.425 48.545c7.367-.479 12.795-3.815 17.012-9.297 3.445-4.473 5.168-9.652 5.168-15.54.0-6.891-2.311-12.63-6.931-17.217-4.621-4.586-10.628-6.743-18.021-6.469-6.846-.274-12.613 1.889-17.303 6.486-4.689 4.599-7.034 10.343-7.034 17.234.0 6.139 1.802 11.444 5.408 15.916.63.781 1.299 1.504 2.001 2.177h9.307c-.06-.077-.126-.146-.185-.226-2.784-3.787-4.861-9.439-4.861-17.358.0-6.663 2.25-20.5 13-20.5 11.125.0 12.875 14.487 12.875 20.625.0 5.157-1.174 9.288-2.291 12.493-1.118 3.207-3.262 6.969-9.646 7.647-.174.019-.42.034-.712.047H225.17c-1.771-.024-3.013-.048-3.013-.048.015.017.033.031.048.048h-16.781s-2.625 3.344-4.969 4h34.206c.641.03 1.278.047 1.904.047.551.0 1.09-.017 1.62-.047h.239v-.018z"/><circle cx="301.759" cy="45.668" r="3"/></g></svg>