<svg xmlns="http://www.w3.org/2000/svg" xml:space="preserve" viewBox="0 0 1000 1000" fill="#61DAFB">
  <path d="M40.22 13.25c-2.68 1.72-5.93 5.17-7.08 7.66-1.34 2.87-2.11 141.85-2.11 443.16-.19 474.17-.57 448.52 9.38 468.43 4.98 9.38 16.46 24.89 22.78 30.43 8.81 7.85 23.93 16.85 35.8 21.63l11.49 4.59 421.15.57c387.46.57 421.72.38 427.08-2.49 3.45-1.72 7.08-5.36 8.23-7.85 1.53-3.45 2.1-123.47 2.1-440.29v-435.7l-5.55-5.55-5.55-5.55h-69.3V60.7c0-35.61-1.72-42.88-11.29-47.67-5.17-2.68-47.47-3.06-418.85-3.06-381.34.22-413.5.41-418.28 3.28zm806.3 445.65v408.7H71.23V50.2h775.3v408.7zm82.32 82.32v408.7l-404.3-.38c-387.65-.57-404.87-.76-413.49-4.02-11.29-4.4-27.18-18.38-32.16-28.33-2.11-4.02-3.83-7.85-3.83-8.42 0-.57 179.75-.96 399.71-.96 358.93 0 400.09-.38 403.92-3.06 10.53-7.47 9.95 18.18 9.95-393.2V132.52h40.2v408.7z"/>
  <path d="m118.7 97.87-6.32 5.55v180.72l6.32 5.55c7.27 6.51 17.8 7.47 25.08 2.49 8.81-6.32 9.76-12.25 9.76-67v-51.11l44.03 58.58c24.12 32.16 45.56 59.54 47.67 60.49 5.55 3.06 15.89 2.49 20.87-.96 9.96-6.89 9.96-7.66 9.96-97.44 0-89.59-.38-92.65-9.76-99.35-7.27-4.98-17.8-4.02-25.08 2.49l-6.32 5.55-.57 54.94-.58 54.94-43.84-58.39c-24.12-32.16-45.56-59.54-47.67-60.49-7.28-4.03-17.04-2.5-23.55 3.44zM324.68 95.76c-2.3 1.72-5.17 5.17-6.32 7.47-3.06 6.13-2.87 174.58.19 181.48 4.21 9.38 9.57 10.53 50.35 10.53h37.71l5.55-5.55c6.13-6.13 7.27-15.12 3.25-24.12-3.83-8.61-10.53-10.53-35.99-10.53h-22.97v-40.2h21.06c23.16 0 31.78-2.3 37.14-9.76 4.98-7.27 4.02-17.8-2.49-25.08l-5.55-6.32-25.08-.57-25.08-.77v-39.82h23.16c18.19 0 24.31-.77 28.52-3.25 11.1-6.51 13.02-22.21 4.02-31.4l-5.55-5.55h-39.05c-33.87 0-39.42.57-42.87 3.44zM448.54 94.99c-5.36 3.06-9.57 9.96-9.76 16.08 0 2.3 9.57 42.31 21.06 89.01 19.72 79.06 21.44 85 26.8 89.78 4.4 4.02 7.85 5.36 13.4 5.36 13.21 0 17.23-5.93 28.71-41.16 5.55-16.85 10.72-31.39 11.49-32.16.77-.96 5.17 9.38 9.57 22.97 13.78 41.54 15.12 44.41 21.06 47.47 8.23 4.21 18 3.64 23.93-1.53 4.4-3.83 7.47-13.59 26.8-91.31 18.95-75.42 21.63-87.87 19.91-93.23-4.41-13.78-20.87-18.57-31.97-9.19-5.17 4.4-6.7 8.81-17.8 53.6-6.7 26.8-12.64 48.81-13.21 48.81-.57 0-5.36-12.63-10.53-28.14-10.72-31.59-14.16-35.99-27.76-35.8-13.59.38-15.89 3.44-26.8 36.18-5.55 16.46-10.34 29.67-10.53 29.29-.38-.38-6.32-22.97-13.21-50.35-10.72-43.07-13.02-50.35-17.42-54.17-5.75-4.76-16.47-5.53-23.74-1.51zM716.35 96.34c-21.63 9.76-32.54 28.71-32.54 56.28 0 21.63 4.59 33.88 17.04 45.56 12.44 11.68 20.86 14.93 40.96 16.08 22.01 1.34 24.31 3.83 24.31 25.65v15.12h-67.38l-6.51 6.51c-9.38 9.38-8.61 21.82 1.91 30.25 3.45 2.87 8.81 3.45 42.31 3.45 43.26 0 48.62-1.34 59.73-13.97 8.23-9.38 10.14-17.42 10.14-41.92 0-26.42-3.83-37.71-17.04-49.96-12.44-11.68-20.86-14.93-40.96-16.08-14.93-.96-17.23-1.53-20.48-5.93-5.93-7.27-5.36-23.93.96-30.06 4.4-4.59 5.36-4.79 33.31-4.79 31.39 0 37.14-1.34 41.54-9.76 4.6-9 3.45-18.57-2.87-24.89l-5.55-5.55h-35.22c-31.03-.01-36 .56-43.66 4.01zM118.7 342.9l-6.32 5.55-.57 126.15c-.38 87.87 0 128.07 1.53 133.23 1.34 4.79 4.21 8.61 8.23 10.91 5.93 3.64 10.91 3.83 155.25 3.83h148.93l6.51-6.51 6.51-6.51V481.11c0-139.55.19-136.68-10.53-141.47-3.64-1.72-42.5-2.3-154.1-2.3H124.83l-6.13 5.56zm279.49 136.49-.57 102.03-121.94.57-122.13.38V377.54h245.04l-.4 101.85zM508.46 340.79c-10.53 8.42-11.3 20.87-1.92 30.25l6.51 6.51h128.64c116.58 0 129.21-.38 134-3.25 11.1-6.51 13.02-22.21 4.02-31.39l-5.55-5.55H643.22c-120.98-.01-131.13.37-134.76 3.43zM512.09 420.62c-6.32 2.68-12.06 11.29-12.06 18.19 0 7.08 5.74 15.51 12.44 18.38 9.57 4.02 250.58 4.02 260.15 0 13.59-5.74 17.04-21.06 7.08-32.16l-5.55-6.32-128.07-.38c-105.85-.39-128.82-.01-133.99 2.29zM506.54 506.57c-4.59 4.59-6.51 8.23-6.51 12.44 0 8.23 4.4 16.27 10.53 18.95 3.64 1.72 38.09 2.3 134.19 2.3h129.41l5.55-5.55c9.19-9.38 6.51-27.18-4.98-32.35-3.64-1.72-37.9-2.3-133.23-2.3H513.05l-6.51 6.51zM508.46 585.82c-10.53 8.42-11.3 20.87-1.92 30.25l6.51 6.51h128.64c116.58 0 129.21-.38 134-3.25 11.1-6.51 13.02-22.21 4.02-31.39l-5.55-5.55H643.22c-120.98-.01-131.13.37-134.76 3.43zM144.55 665.65c-6.32 2.68-12.06 11.3-12.06 18.19 0 7.08 5.74 15.51 12.44 18.38 9.57 4.02 250.58 4.02 260.15 0 13.59-5.74 17.04-21.06 7.08-32.16l-5.55-6.32-128.07-.38c-105.85-.39-128.83-.01-133.99 2.29zM512.09 665.65c-6.32 2.68-12.06 11.3-12.06 18.19 0 7.08 5.74 15.51 12.44 18.38 9.96 4.21 253.26 4.02 261.3-.19 12.83-6.51 15.5-21.25 5.93-31.97l-5.55-6.32-128.07-.38c-105.85-.39-128.82-.01-133.99 2.29zM138.99 751.6c-4.59 4.59-6.51 8.23-6.51 12.44 0 8.23 4.4 16.27 10.53 18.95 3.64 1.72 38.09 2.3 134.19 2.3h129.41l5.55-5.55c9.19-9.38 6.51-27.18-4.98-32.35-3.64-1.72-37.9-2.3-133.24-2.3H145.5l-6.51 6.51zM506.54 751.6c-4.59 4.59-6.51 8.23-6.51 12.44 0 8.23 4.4 16.27 10.53 18.95 3.64 1.72 38.09 2.3 134.19 2.3h129.41l5.55-5.55c9.19-9.38 6.51-27.18-4.98-32.35-3.64-1.72-37.9-2.3-133.23-2.3H513.05l-6.51 6.51z"/>
</svg>
